<?xml version="1.0" standalone="no"?>
<!DOCTYPE svg PUBLIC "-//W3C//DTD SVG 20010904//EN"
 "http://www.w3.org/TR/2001/REC-SVG-20010904/DTD/svg10.dtd">
<svg version="1.0" xmlns="http://www.w3.org/2000/svg"
 width="260.000000pt" height="260.000000pt" viewBox="0 0 260.000000 260.000000"
 preserveAspectRatio="xMidYMid meet">
<metadata>
Created by potrace 1.11, written by Peter Selinger 2001-2013
</metadata>
<g transform="translate(0.000000,260.000000) scale(0.100000,-0.100000)"
fill="#000000" stroke="none">
<path d="M1849 2196 c-2 -2 -31 -6 -64 -9 -362 -34 -1054 -310 -1344 -537 -84
-66 -136 -125 -149 -167 -23 -78 5 -192 49 -201 8 -1 27 19 43 44 59 94 294
252 601 406 105 52 243 116 307 141 229 92 557 196 668 213 19 3 51 9 70 13
30 6 103 7 178 2 12 0 31 -10 42 -21 19 -19 19 -23 6 -48 -48 -91 -229 -207
-641 -412 -239 -118 -425 -196 -425 -177 0 7 7 31 15 54 8 23 12 48 10 55 -8
21 -44 39 -89 44 -56 7 -73 -8 -137 -131 -70 -134 -80 -146 -136 -174 -92 -47
-142 -83 -154 -114 -12 -27 -11 -32 11 -49 19 -16 33 -18 68 -13 44 7 44 6 38
-19 -13 -51 -18 -115 -12 -139 7 -28 70 -67 85 -52 6 6 31 53 56 105 67 137
113 208 138 216 12 3 47 18 77 31 30 14 69 31 86 39 49 21 241 83 306 99 85
20 200 15 227 -9 32 -29 42 -80 26 -127 -51 -143 -254 -317 -610 -521 -183
-104 -268 -143 -440 -200 -236 -79 -356 -77 -390 6 -25 60 9 169 91 290 40 59
42 79 11 93 -22 10 -91 9 -132 -1 -26 -7 -64 -75 -95 -169 -51 -157 9 -280
163 -334 72 -25 289 -24 402 1 229 52 542 179 699 285 136 92 283 227 344 318
66 97 95 220 70 296 -21 64 -101 131 -183 153 l-40 11 81 40 c419 213 614 367
614 484 0 40 -36 86 -92 119 -89 51 -139 62 -299 66 -81 2 -148 2 -150 0z"/>
</g>
</svg>
