<svg version="1" xmlns="http://www.w3.org/2000/svg" width="346.667" height="346.667" viewBox="0 0 260.000000 260.000000"><path d="M113.1 1C57.5 8.8 14.4 49.3 2.4 105.1c-2.6 11.8-2.6 38 0 49.8 5.9 27.3 16.7 47.4 36 66.7 19.3 19.3 39.4 30.1 66.7 36 11.8 2.6 38 2.6 49.8 0 27.3-5.9 47.4-16.7 66.7-36 19.3-19.3 30.1-39.4 36-66.7 1.4-6.2 1.8-12.7 1.8-24.9s-.4-18.7-1.8-24.9c-5.9-27.3-16.7-47.4-36-66.7-19-18.9-38.4-29.6-64.6-35.5C147.1.6 123-.4 113.1 1zm28.1 50c18 2.6 31.2 12.2 36.3 26.3 1.4 3.7 1.9 7.7 1.8 13.7-.1 11.3-2.7 18.1-9.9 25.9l-5.4 5.9 4.5 2.2c23.9 11.6 32 46.6 15.8 67.8-4.3 5.7-13.8 12-22.6 14.9l-8.2 2.7-36.2.4c-29.7.3-36.3.1-36.3-1 0-.7.3-3 .6-5 .7-3.8.7-3.8 5.6-3.8 4.1 0 5.4-.5 7.9-2.9l2.9-2.9V65.8l-2.9-2.9c-2.5-2.4-3.8-2.9-7.9-2.9-4.9 0-4.9 0-5.6-3.8-.3-2-.6-4.3-.6-5 0-1.5 49.7-1.7 60.2-.2z"/><path d="M120 92.5V120h6.3c9 0 16.1-2.4 21.2-7.1 5.9-5.5 8-11.2 8-21.9 0-7.5-.4-9.1-3-13.8-4.8-8.8-11.6-12.2-24.6-12.2H120v27.5zM120 163.1v33.2l13.3-.6c19.5-.9 26.8-4.2 32.5-15.1 2.4-4.6 2.6-6.2 2.7-15.6 0-12.2-2-18.2-8.3-24.3-6.6-6.4-19.9-10.6-33.4-10.7H120v33.1z"/></svg>