<svg version="1" xmlns="http://www.w3.org/2000/svg" width="346.667" height="346.667" viewBox="0 0 260.000000 260.000000"><path d="M113.1 1C57.5 8.8 14.4 49.3 2.4 105.1c-2.6 11.8-2.6 38 0 49.8 5.9 27.3 16.7 47.4 36 66.7 19.3 19.3 39.4 30.1 66.7 36 11.8 2.6 38 2.6 49.8 0 27.3-5.9 47.4-16.7 66.7-36 19.3-19.3 30.1-39.4 36-66.7 1.4-6.2 1.8-12.7 1.8-24.9s-.4-18.7-1.8-24.9c-5.9-27.3-16.7-47.4-36-66.7-19-18.9-38.4-29.6-64.6-35.5C147.1.6 123-.4 113.1 1zm44.2 55.3c19.9 5.8 29.6 17.3 30.5 36.2.3 7.4 0 10-1.7 14.6-2.6 6.8-8.6 13.9-14.7 17.5l-4.5 2.6 5 2.3c11.5 5.4 18.7 16.1 19.8 29.5 1.6 19-7 34.6-23.2 42.1-10.6 5-18.3 5.8-53.7 5.9H83V53.8l34.3.4c27.9.4 35.3.8 40 2.1z"/><path d="M109.7 75.7c-.4.3-.7 10-.7 21.5V118h17.1c19.3 0 23.1-.7 28.8-5.7 5.1-4.3 7.5-10.5 6.9-17.5-1-11.3-6.4-16.7-18.8-18.7-7.2-1.2-32.3-1.5-33.3-.4zM109.2 161.7l.3 23.8h19c18.9 0 19 0 24.8-2.8 9.7-4.8 14-14.4 11.8-26.3-1.5-7.7-4.8-12.6-10.8-15.5-4.5-2.2-6.1-2.4-25.1-2.7l-20.2-.3.2 23.8z"/></svg>