<?xml version="1.0" encoding="utf-8"?>
<!-- Generator: Adobe Illustrator 16.0.4, SVG Export Plug-In . SVG Version: 6.00 Build 0)  -->
<!DOCTYPE svg PUBLIC "-//W3C//DTD SVG 1.1//EN" "http://www.w3.org/Graphics/SVG/1.1/DTD/svg11.dtd">
<svg version="1.1" id="Layer_1" xmlns="http://www.w3.org/2000/svg" xmlns:xlink="http://www.w3.org/1999/xlink" x="0px" y="0px"
	 width="216px" height="109.105px" viewBox="0 0 216 109.105" enable-background="new 0 0 216 109.105" xml:space="preserve">
<g>
	<path fill="none" stroke="#FFFFFF" stroke-width="8" stroke-linecap="round" stroke-miterlimit="10" d="M85,4.789
		c-19.392,8.193-33,27.389-33,49.764c0,22.373,13.608,41.57,33,49.764"/>
	
		<line fill="none" stroke="#FFFFFF" stroke-width="8" stroke-linecap="round" stroke-miterlimit="10" x1="4" y1="54.414" x2="52" y2="54.414"/>
	
		<line fill="none" stroke="#FFFFFF" stroke-width="8" stroke-linecap="round" stroke-miterlimit="10" x1="22" y1="75.414" x2="56" y2="75.414"/>
	
		<line fill="none" stroke="#FFFFFF" stroke-width="8" stroke-linecap="round" stroke-miterlimit="10" x1="22" y1="36.414" x2="55" y2="36.414"/>
</g>
<g>
	
		<line fill="none" stroke="#FFFFFF" stroke-width="8" stroke-linecap="round" stroke-miterlimit="10" x1="164" y1="54.414" x2="212" y2="54.414"/>
	
		<line fill="none" stroke="#FFFFFF" stroke-width="8" stroke-linecap="round" stroke-miterlimit="10" x1="161" y1="74.414" x2="194" y2="74.414"/>
	
		<line fill="none" stroke="#FFFFFF" stroke-width="8" stroke-linecap="round" stroke-miterlimit="10" x1="161" y1="36.414" x2="194" y2="36.414"/>
	<path fill="none" stroke="#FFFFFF" stroke-width="8" stroke-linecap="round" stroke-miterlimit="10" d="M129,105.105
		c20.447-7.689,35-27.418,35-50.553S149.447,11.689,129,4"/>
</g>
<g>
	<path fill="#FFFFFF" stroke="#FFFFFF" stroke-miterlimit="10" d="M81.782,68.256c0.52,0.738,1.19,1.311,2.011,1.714
		s1.717,0.605,2.688,0.605c1.19,0,2.312-0.288,3.366-0.862s1.974-1.354,2.76-2.34c0.787-0.984,1.413-2.127,1.878-3.427
		c0.465-1.3,0.698-2.682,0.698-4.146c0-1.807-0.373-3.25-1.118-4.33c-0.746-1.081-1.844-1.813-3.294-2.196
		c-0.041,0.014-0.137,0.021-0.288,0.021c-0.164,0-0.297-0.024-0.4-0.072c-0.103-0.047-0.154-0.113-0.154-0.195
		c0-0.068,0.055-0.133,0.165-0.195c0.109-0.062,0.253-0.092,0.431-0.092c0.191,0,0.376,0.055,0.554,0.164
		c1.108-0.246,2.138-0.674,3.089-1.283c0.951-0.608,1.778-1.341,2.483-2.196s1.259-1.796,1.663-2.822
		c0.403-1.026,0.605-2.086,0.605-3.181c0-1.231-0.274-2.22-0.821-2.966c-0.547-0.746-1.403-1.275-2.565-1.59
		c-0.37,0.15-0.746,0.346-1.129,0.585c-0.383,0.239-0.756,0.51-1.119,0.811c-0.362,0.301-0.701,0.619-1.016,0.954
		c-0.315,0.335-0.588,0.667-0.821,0.996c-0.124,0.178-0.247,0.379-0.37,0.605c-0.123,0.226-0.264,0.523-0.421,0.893
		c-0.157,0.37-0.349,0.838-0.574,1.406c-0.226,0.568-0.5,1.28-0.821,2.134c-0.321,0.855-0.701,1.878-1.139,3.068
		c-0.438,1.19-0.958,2.6-1.56,4.228c-1.067,2.915-2.168,5.442-3.304,7.583s-2.319,3.913-3.55,5.315s-2.524,2.442-3.879,3.119
		c-1.354,0.678-2.778,1.016-4.269,1.016c-3.804,0-5.706-2.188-5.706-6.566c0-0.972,0.089-1.991,0.267-3.059
		c0.178-1.066,0.438-2.154,0.78-3.263c0.342-1.108,0.759-2.22,1.251-3.335c0.493-1.115,1.054-2.207,1.683-3.273
		c1.286-2.189,2.784-4.169,4.495-5.941c1.71-1.772,3.547-3.277,5.51-4.515s4.022-2.192,6.177-2.863
		c2.155-0.67,4.32-1.006,6.496-1.006c1.423,0,2.699,0.144,3.828,0.431c1.129,0.287,2.083,0.705,2.863,1.252
		c0.78,0.547,1.375,1.218,1.786,2.011s0.616,1.69,0.616,2.688c0,1.177-0.271,2.298-0.811,3.366c-0.541,1.067-1.28,2.008-2.217,2.822
		c-0.937,0.814-2.028,1.471-3.273,1.97c-1.245,0.5-2.565,0.77-3.961,0.811c2.34,0.521,4.081,1.406,5.223,2.658
		s1.714,2.85,1.714,4.793c0,0.984-0.144,1.942-0.431,2.873c-0.287,0.93-0.688,1.803-1.201,2.616
		c-0.513,0.813-1.132,1.56-1.857,2.237c-0.726,0.677-1.522,1.262-2.391,1.754c-0.869,0.493-1.796,0.873-2.781,1.14
		c-0.985,0.267-2.004,0.399-3.058,0.399c-0.602,0-1.149-0.047-1.642-0.143s-0.958-0.25-1.396-0.463
		c-0.438-0.211-0.852-0.484-1.242-0.82c-0.39-0.335-0.777-0.742-1.16-1.221L81.782,68.256z M87.097,45.558
		c0.602-1.095,1.214-2.025,1.837-2.791c0.623-0.766,1.252-1.413,1.888-1.939s1.279-0.958,1.929-1.293
		c0.649-0.335,1.31-0.612,1.98-0.831c-0.315-0.055-0.657-0.096-1.026-0.124c-0.37-0.027-0.752-0.041-1.149-0.041
		c-2.052,0-4.108,0.332-6.167,0.996c-2.06,0.664-4.036,1.601-5.931,2.812s-3.667,2.668-5.315,4.372
		c-1.649,1.703-3.089,3.588-4.32,5.654c-1.245,2.093-2.192,4.225-2.842,6.393c-0.65,2.169-0.975,4.266-0.975,6.291
		c0,0.984,0.085,1.826,0.256,2.523c0.171,0.698,0.438,1.27,0.8,1.715c0.362,0.444,0.828,0.77,1.396,0.975s1.255,0.308,2.063,0.308
		c0.711,0,1.365-0.082,1.96-0.247c0.595-0.164,1.163-0.443,1.703-0.841c0.541-0.396,1.07-0.917,1.59-1.56s1.047-1.443,1.581-2.401
		s1.094-2.087,1.683-3.386c0.588-1.301,1.231-2.799,1.929-4.495c0.534-1.3,1.026-2.524,1.478-3.673
		c0.451-1.149,0.882-2.227,1.292-3.232c0.411-1.006,0.808-1.939,1.19-2.801C86.31,47.076,86.7,46.283,87.097,45.558z"/>
	<path fill="#FFFFFF" stroke="#FFFFFF" stroke-miterlimit="10" d="M131.305,40.365h3.037l-7.451,20.461
		c-0.369,1.027-0.688,2.062-0.953,3.109c-0.268,1.047-0.4,2.002-0.4,2.863c0,0.561,0.064,1.074,0.195,1.539
		c0.129,0.465,0.328,0.862,0.594,1.19c0.268,0.329,0.604,0.585,1.006,0.77c0.404,0.185,0.879,0.277,1.428,0.277
		c0.93,0,1.891-0.271,2.883-0.812c0.992-0.539,1.977-1.278,2.955-2.216c0.979-0.937,1.943-2.042,2.895-3.314
		c0.949-1.272,1.846-2.64,2.688-4.104c0.842-1.464,1.621-2.992,2.34-4.587c0.719-1.594,1.338-3.181,1.857-4.761
		c0.52-1.581,0.924-3.123,1.211-4.628c0.287-1.505,0.432-2.9,0.432-4.187c0-0.903-0.062-1.666-0.186-2.289s-0.264-1.146-0.42-1.57
		c-0.158-0.424-0.299-0.766-0.422-1.026c-0.123-0.26-0.184-0.472-0.184-0.636c0-0.178,0.084-0.369,0.256-0.575
		c0.17-0.205,0.42-0.308,0.748-0.308c0.316,0,0.582,0.126,0.801,0.379c0.219,0.253,0.395,0.589,0.523,1.006
		c0.131,0.417,0.223,0.893,0.277,1.426s0.082,1.088,0.082,1.663c0,1.409-0.146,2.938-0.441,4.587
		c-0.295,1.648-0.707,3.345-1.242,5.089c-0.533,1.745-1.172,3.496-1.918,5.254c-0.746,1.758-1.57,3.445-2.473,5.059
		c-0.904,1.614-1.879,3.126-2.926,4.536c-1.045,1.408-2.133,2.633-3.262,3.673s-2.285,1.857-3.469,2.452
		c-1.184,0.596-2.371,0.893-3.561,0.893c-0.891,0-1.662-0.167-2.32-0.502c-0.656-0.336-1.199-0.787-1.631-1.355
		c-0.432-0.566-0.748-1.224-0.955-1.97c-0.205-0.745-0.307-1.536-0.307-2.37c0-0.738,0.082-1.491,0.246-2.258
		c-0.738,1.246-1.512,2.385-2.318,3.418c-0.809,1.033-1.637,1.922-2.484,2.668c-0.848,0.745-1.711,1.326-2.586,1.744
		c-0.875,0.417-1.752,0.625-2.627,0.625c-0.67,0-1.326-0.126-1.971-0.379c-0.643-0.254-1.213-0.615-1.713-1.088
		s-0.9-1.047-1.201-1.725c-0.301-0.677-0.451-1.446-0.451-2.309c0-0.752,0.116-1.611,0.349-2.575
		c0.232-0.964,0.537-1.994,0.914-3.089c0.376-1.094,0.808-2.233,1.292-3.417c0.486-1.183,0.986-2.38,1.498-3.591
		c0.514-1.211,1.014-2.404,1.5-3.582c0.484-1.176,0.916-2.305,1.293-3.386c0.375-1.081,0.68-2.09,0.912-3.027s0.35-1.769,0.35-2.494
		c0-0.329-0.031-0.64-0.094-0.934c-0.061-0.294-0.16-0.547-0.297-0.76c-0.137-0.212-0.324-0.379-0.564-0.502
		c-0.24-0.124-0.529-0.185-0.871-0.185c-0.59,0-1.215,0.195-1.879,0.585c-0.664,0.39-1.344,0.989-2.041,1.796
		c-0.699,0.808-1.407,1.83-2.125,3.068s-1.426,2.699-2.124,4.381L105.445,48c0.78-1.902,1.556-3.506,2.33-4.813
		c0.772-1.306,1.556-2.36,2.351-3.16c0.793-0.801,1.594-1.378,2.4-1.734c0.807-0.355,1.627-0.534,2.463-0.534
		c1.244,0,2.213,0.335,2.904,1.006c0.689,0.67,1.035,1.608,1.035,2.812c0,0.711-0.115,1.549-0.348,2.514
		c-0.232,0.964-0.545,2.011-0.934,3.14c-0.391,1.129-0.832,2.312-1.324,3.551s-0.996,2.49-1.508,3.755
		c-0.514,1.267-1.018,2.515-1.51,3.745c-0.492,1.232-0.934,2.398-1.324,3.5c-0.389,1.102-0.701,2.117-0.934,3.047
		c-0.232,0.932-0.348,1.725-0.348,2.381c0,0.492,0.072,0.944,0.215,1.355c0.145,0.41,0.346,0.766,0.605,1.066
		s0.574,0.533,0.943,0.697c0.371,0.165,0.781,0.247,1.232,0.247c0.916,0,1.875-0.335,2.873-1.006c0.998-0.67,1.984-1.58,2.955-2.729
		s1.916-2.483,2.832-4.002s1.758-3.126,2.525-4.822L131.305,40.365z"/>
</g>
<g>
</g>
<g>
</g>
<g>
</g>
<g>
</g>
<g>
</g>
<g>
</g>
</svg>
