<?xml version="1.0" encoding="utf-8"?>
<!-- Generator: Adobe Illustrator 16.0.4, SVG Export Plug-In . SVG Version: 6.00 Build 0)  -->
<!DOCTYPE svg PUBLIC "-//W3C//DTD SVG 1.1//EN" "http://www.w3.org/Graphics/SVG/1.1/DTD/svg11.dtd">
<svg version="1.1" id="Layer_1" xmlns="http://www.w3.org/2000/svg" xmlns:xlink="http://www.w3.org/1999/xlink" x="0px" y="0px"
	 width="216px" height="109.105px" viewBox="0 0 216 109.105" enable-background="new 0 0 216 109.105" xml:space="preserve">
<g>
	<path fill="none" stroke="#FFFFFF" stroke-width="8" stroke-linecap="round" stroke-miterlimit="10" d="M85,4.789
		c-19.392,8.193-33,27.389-33,49.764c0,22.373,13.608,41.57,33,49.765"/>
	
		<line fill="none" stroke="#FFFFFF" stroke-width="8" stroke-linecap="round" stroke-miterlimit="10" x1="4" y1="54.414" x2="52" y2="54.414"/>
	
		<line fill="none" stroke="#FFFFFF" stroke-width="8" stroke-linecap="round" stroke-miterlimit="10" x1="22" y1="75.414" x2="56" y2="75.414"/>
	
		<line fill="none" stroke="#FFFFFF" stroke-width="8" stroke-linecap="round" stroke-miterlimit="10" x1="22" y1="36.414" x2="55" y2="36.414"/>
</g>
<g>
	
		<line fill="none" stroke="#FFFFFF" stroke-width="8" stroke-linecap="round" stroke-miterlimit="10" x1="164" y1="54.414" x2="212" y2="54.414"/>
	
		<line fill="none" stroke="#FFFFFF" stroke-width="8" stroke-linecap="round" stroke-miterlimit="10" x1="161" y1="74.414" x2="194" y2="74.414"/>
	
		<line fill="none" stroke="#FFFFFF" stroke-width="8" stroke-linecap="round" stroke-miterlimit="10" x1="161" y1="36.414" x2="194" y2="36.414"/>
	<path fill="none" stroke="#FFFFFF" stroke-width="8" stroke-linecap="round" stroke-miterlimit="10" d="M129,105.105
		c20.447-7.689,35-27.418,35-50.554C164,31.417,149.447,11.689,129,4"/>
</g>
<g>
	<path fill="#FFE800" stroke="#F6EC13" stroke-miterlimit="10" d="M81.782,68.256c0.52,0.738,1.19,1.312,2.011,1.714
		c0.821,0.403,1.717,0.605,2.688,0.605c1.19,0,2.312-0.288,3.366-0.862c1.054-0.573,1.974-1.354,2.76-2.34
		c0.787-0.983,1.413-2.127,1.878-3.427c0.465-1.3,0.698-2.682,0.698-4.146c0-1.807-0.373-3.25-1.118-4.33
		c-0.746-1.08-1.844-1.812-3.294-2.195c-0.041,0.014-0.137,0.021-0.288,0.021c-0.164,0-0.297-0.023-0.4-0.071
		s-0.154-0.113-0.154-0.195c0-0.068,0.055-0.133,0.165-0.195c0.109-0.062,0.253-0.092,0.431-0.092c0.191,0,0.376,0.055,0.554,0.164
		c1.108-0.246,2.138-0.674,3.089-1.283c0.951-0.607,1.778-1.341,2.483-2.196c0.705-0.854,1.259-1.796,1.663-2.821
		c0.403-1.026,0.605-2.086,0.605-3.182c0-1.23-0.274-2.22-0.821-2.966c-0.547-0.746-1.403-1.274-2.565-1.59
		c-0.37,0.15-0.746,0.346-1.129,0.585c-0.383,0.239-0.756,0.51-1.119,0.812c-0.362,0.301-0.701,0.618-1.016,0.953
		s-0.588,0.667-0.821,0.996c-0.124,0.179-0.247,0.379-0.37,0.605c-0.123,0.226-0.264,0.522-0.421,0.893
		c-0.157,0.37-0.349,0.838-0.574,1.406c-0.226,0.568-0.5,1.28-0.821,2.134c-0.321,0.855-0.701,1.878-1.139,3.068
		c-0.438,1.189-0.958,2.6-1.56,4.228c-1.067,2.915-2.168,5.442-3.304,7.583c-1.136,2.142-2.319,3.913-3.55,5.315
		s-2.524,2.442-3.879,3.119c-1.354,0.678-2.778,1.016-4.269,1.016c-3.804,0-5.706-2.188-5.706-6.565c0-0.973,0.089-1.991,0.267-3.06
		c0.178-1.065,0.438-2.154,0.78-3.263c0.342-1.108,0.759-2.22,1.251-3.335c0.493-1.115,1.054-2.207,1.683-3.273
		c1.286-2.188,2.784-4.169,4.495-5.94c1.71-1.772,3.547-3.277,5.51-4.516c1.963-1.237,4.022-2.191,6.177-2.862
		c2.155-0.67,4.32-1.007,6.496-1.007c1.423,0,2.699,0.145,3.828,0.432c1.129,0.287,2.083,0.705,2.863,1.252
		c0.78,0.547,1.375,1.218,1.786,2.011c0.411,0.793,0.616,1.69,0.616,2.688c0,1.177-0.271,2.298-0.811,3.365
		c-0.541,1.067-1.28,2.009-2.217,2.822c-0.937,0.814-2.028,1.471-3.273,1.97c-1.245,0.5-2.565,0.771-3.961,0.812
		c2.34,0.521,4.081,1.406,5.223,2.658s1.714,2.85,1.714,4.793c0,0.983-0.144,1.941-0.431,2.873c-0.287,0.93-0.688,1.803-1.201,2.615
		c-0.513,0.813-1.132,1.561-1.857,2.237c-0.726,0.677-1.522,1.262-2.391,1.754c-0.869,0.493-1.796,0.873-2.781,1.141
		c-0.985,0.267-2.004,0.398-3.058,0.398c-0.602,0-1.149-0.047-1.642-0.143c-0.493-0.097-0.958-0.25-1.396-0.463
		c-0.438-0.211-0.852-0.484-1.242-0.82c-0.39-0.335-0.777-0.742-1.16-1.221L81.782,68.256z M87.097,45.558
		c0.602-1.096,1.214-2.025,1.837-2.791c0.623-0.767,1.252-1.413,1.888-1.939c0.636-0.526,1.279-0.958,1.929-1.293
		c0.649-0.335,1.31-0.612,1.98-0.831c-0.315-0.055-0.657-0.096-1.026-0.124c-0.37-0.027-0.752-0.041-1.149-0.041
		c-2.052,0-4.108,0.332-6.167,0.996c-2.06,0.664-4.036,1.601-5.931,2.812c-1.895,1.211-3.667,2.668-5.315,4.371
		c-1.649,1.703-3.089,3.589-4.32,5.654c-1.245,2.093-2.192,4.226-2.842,6.394c-0.65,2.169-0.975,4.266-0.975,6.291
		c0,0.983,0.085,1.825,0.256,2.522c0.171,0.698,0.438,1.271,0.8,1.715s0.828,0.771,1.396,0.976s1.255,0.308,2.063,0.308
		c0.711,0,1.365-0.082,1.96-0.247c0.595-0.164,1.163-0.442,1.703-0.841c0.541-0.396,1.07-0.917,1.59-1.56
		c0.52-0.644,1.047-1.443,1.581-2.401s1.094-2.087,1.683-3.386c0.588-1.302,1.231-2.8,1.929-4.495
		c0.534-1.3,1.026-2.524,1.478-3.673c0.451-1.149,0.882-2.228,1.292-3.232c0.411-1.006,0.808-1.938,1.19-2.801
		C86.31,47.076,86.7,46.283,87.097,45.558z"/>
	<path fill="#FFE800" stroke="#F6EC13" stroke-miterlimit="10" d="M131.305,40.365h3.037l-7.451,20.461
		c-0.369,1.027-0.688,2.062-0.953,3.109c-0.268,1.047-0.399,2.002-0.399,2.862c0,0.562,0.063,1.074,0.194,1.539
		c0.129,0.465,0.328,0.862,0.595,1.19c0.269,0.329,0.604,0.585,1.006,0.77c0.403,0.186,0.879,0.277,1.428,0.277
		c0.931,0,1.892-0.271,2.884-0.812c0.991-0.539,1.977-1.278,2.955-2.217c0.979-0.937,1.942-2.042,2.895-3.313
		c0.949-1.272,1.846-2.641,2.688-4.104s1.621-2.992,2.34-4.587c0.72-1.594,1.338-3.181,1.857-4.761
		c0.52-1.581,0.924-3.123,1.211-4.628s0.432-2.9,0.432-4.188c0-0.902-0.062-1.666-0.186-2.289s-0.264-1.146-0.42-1.569
		c-0.158-0.424-0.299-0.767-0.422-1.026s-0.184-0.472-0.184-0.636c0-0.178,0.084-0.369,0.256-0.575
		c0.17-0.205,0.42-0.308,0.748-0.308c0.315,0,0.582,0.126,0.801,0.379s0.395,0.589,0.523,1.006c0.131,0.417,0.223,0.893,0.276,1.426
		s0.082,1.088,0.082,1.663c0,1.409-0.146,2.938-0.44,4.587c-0.296,1.648-0.707,3.345-1.242,5.089
		c-0.533,1.745-1.172,3.496-1.918,5.254c-0.746,1.759-1.57,3.445-2.474,5.06s-1.879,3.126-2.926,4.536
		c-1.045,1.407-2.134,2.633-3.263,3.673s-2.284,1.856-3.469,2.452c-1.184,0.596-2.371,0.893-3.561,0.893
		c-0.891,0-1.662-0.167-2.32-0.502c-0.656-0.336-1.199-0.787-1.631-1.354c-0.432-0.566-0.748-1.225-0.955-1.971
		c-0.205-0.745-0.307-1.536-0.307-2.37c0-0.737,0.082-1.49,0.246-2.258c-0.738,1.246-1.512,2.385-2.318,3.418
		c-0.809,1.033-1.637,1.922-2.484,2.668c-0.848,0.745-1.711,1.326-2.586,1.744c-0.875,0.417-1.752,0.625-2.627,0.625
		c-0.67,0-1.326-0.126-1.971-0.379c-0.643-0.254-1.213-0.615-1.713-1.088s-0.9-1.047-1.201-1.726
		c-0.301-0.677-0.451-1.445-0.451-2.309c0-0.752,0.116-1.611,0.349-2.575c0.232-0.964,0.538-1.994,0.915-3.089
		c0.375-1.094,0.808-2.232,1.291-3.417c0.486-1.183,0.986-2.38,1.498-3.591c0.515-1.211,1.015-2.404,1.5-3.582
		c0.484-1.176,0.916-2.305,1.293-3.386c0.375-1.081,0.681-2.09,0.912-3.027c0.232-0.937,0.351-1.769,0.351-2.494
		c0-0.329-0.031-0.64-0.095-0.934c-0.061-0.294-0.159-0.547-0.297-0.76c-0.137-0.213-0.324-0.38-0.563-0.502
		c-0.24-0.124-0.529-0.186-0.871-0.186c-0.59,0-1.215,0.195-1.879,0.585s-1.345,0.989-2.041,1.796
		c-0.699,0.809-1.407,1.83-2.125,3.068c-0.718,1.238-1.426,2.699-2.124,4.381L105.445,48c0.78-1.901,1.556-3.506,2.33-4.812
		c0.772-1.307,1.556-2.36,2.351-3.16c0.793-0.801,1.595-1.378,2.399-1.734c0.808-0.354,1.627-0.534,2.463-0.534
		c1.244,0,2.214,0.335,2.904,1.007c0.689,0.67,1.035,1.607,1.035,2.812c0,0.711-0.115,1.549-0.348,2.514s-0.545,2.012-0.934,3.141
		c-0.392,1.129-0.832,2.312-1.324,3.551s-0.996,2.49-1.508,3.755c-0.515,1.268-1.019,2.515-1.51,3.745
		c-0.492,1.232-0.935,2.398-1.324,3.5s-0.701,2.117-0.935,3.047c-0.231,0.932-0.348,1.726-0.348,2.381
		c0,0.492,0.071,0.944,0.215,1.355c0.146,0.41,0.346,0.766,0.604,1.065c0.26,0.301,0.574,0.533,0.943,0.697
		c0.371,0.165,0.781,0.247,1.232,0.247c0.916,0,1.875-0.335,2.873-1.006c0.998-0.67,1.983-1.58,2.955-2.729
		c0.971-1.148,1.916-2.482,2.832-4.002c0.916-1.519,1.758-3.126,2.524-4.821L131.305,40.365z"/>
</g>
</svg>
