<svg version="1" xmlns="http://www.w3.org/2000/svg" width="341.333" height="341.333" viewBox="0 0 256.000000 256.000000"><path d="M164.8 30.4c-.1.2-2.9.6-6.1 1-16.4 1.7-38.5 10.4-55.7 21.9-37.4 24.9-65.6 67.6-73.5 111.2-2.1 11.8-1.4 29.3 1.5 36.9 2.9 7.5 8.5 13.7 15.3 16.7 4.5 2.1 6.7 2.4 16.2 2.4 9.8-.1 11.8-.4 18-2.9 20-8.2 34.4-24.2 49.9-55.3 7.4-14.9 11.8-25.8 25.1-62.3 14.8-40.4 17.7-45.6 30.6-54.5 5.9-4 7.9-4 13.6-.2 6.8 4.6 9.5 14.8 7.2 27.2-1.2 6.9-7.1 18.4-12.3 24.1-8.2 9.1-22.6 17.2-28.2 15.8-3.1-.8-7.4 1.3-7.4 3.5 0 2.9 1.8 4.4 5.5 4.7 5.5.5 13.9 5.7 17.3 11 4 5.9 5.6 13 5.5 23.4-.2 22-12.1 42.9-29.2 51.3-5.9 2.9-7.5 3.2-15.1 3.2-7.5 0-9.1-.4-13.8-3-3-1.6-6.7-4.6-8.4-6.8l-3.1-3.8-3.8 3.7-3.8 3.7 3 3.8c7.9 10 17.7 14 32.7 13.5 19.6-.6 37.5-9.4 49.8-24.4 4.8-5.9 11.1-17.7 12-22.7.3-1.6.7-3.2 1-3.6.2-.4.7-4.1 1-8.1 1.5-17.5-5.6-31.8-20-40.3-4.8-2.8-5.6-3.6-4-4.1 13.6-4.8 19.7-8.5 28-16.8 17-17.1 19.1-42.4 4.7-57.1-4.9-4.9-16-10.2-25.3-11.9-6.3-1.2-27.1-2.1-28.2-1.2zm5.4 13.1c-7.1 4.8-15.2 13.3-20.7 21.5-6.4 9.6-12.6 23.1-26 56.5-22 54.7-29.2 69.2-39.8 79.5-6.3 6-11.6 8.3-20.6 8.6-9.4.2-13.1-.8-17-4.7-7.1-7.1-8.3-25.7-3.1-48.4 9.9-43.2 42.6-84.3 82.6-103.8 15.7-7.7 31.1-12.1 44.3-12.6l5.6-.2-5.3 3.6z"/></svg>